<?xml version="1.0" encoding="UTF-8" standalone="no"?>
<!-- Created with Inkscape (http://www.inkscape.org/) -->

<svg
   width="210mm"
   height="297mm"
   viewBox="0 0 210 297"
   version="1.1"
   id="svg1"
   inkscape:version="1.3.2 (091e20ef0f, 2023-11-25)"
   sodipodi:docname="inomeado.svg"
   xmlns:inkscape="http://www.inkscape.org/namespaces/inkscape"
   xmlns:sodipodi="http://sodipodi.sourceforge.net/DTD/sodipodi-0.dtd"
   xmlns:xlink="http://www.w3.org/1999/xlink"
   xmlns="http://www.w3.org/2000/svg"
   xmlns:svg="http://www.w3.org/2000/svg">
  <sodipodi:namedview
     id="namedview1"
     pagecolor="#ffffff"
     bordercolor="#000000"
     borderopacity="0.25"
     inkscape:showpageshadow="2"
     inkscape:pageopacity="0.0"
     inkscape:pagecheckerboard="0"
     inkscape:deskcolor="#d1d1d1"
     inkscape:document-units="mm"
     inkscape:zoom="0.78323156"
     inkscape:cx="241.30795"
     inkscape:cy="497.93703"
     inkscape:window-width="1920"
     inkscape:window-height="1011"
     inkscape:window-x="0"
     inkscape:window-y="0"
     inkscape:window-maximized="1"
     inkscape:current-layer="layer1"
     showguides="true" />
  <defs
     id="defs1">
    <inkscape:path-effect
       effect="bspline"
       id="path-effect21"
       is_visible="true"
       lpeversion="1.3"
       weight="33.333333"
       steps="2"
       helper_size="0"
       apply_no_weight="true"
       apply_with_weight="true"
       only_selected="false"
       uniform="false" />
    <inkscape:path-effect
       effect="bspline"
       id="path-effect20"
       is_visible="true"
       lpeversion="1.3"
       weight="33.333333"
       steps="2"
       helper_size="0"
       apply_no_weight="true"
       apply_with_weight="true"
       only_selected="false"
       uniform="false" />
    <inkscape:path-effect
       effect="bspline"
       id="path-effect19"
       is_visible="true"
       lpeversion="1.3"
       weight="33.333333"
       steps="2"
       helper_size="0"
       apply_no_weight="true"
       apply_with_weight="true"
       only_selected="false"
       uniform="false" />
    <inkscape:path-effect
       effect="bspline"
       id="path-effect18"
       is_visible="true"
       lpeversion="1.3"
       weight="33.333333"
       steps="2"
       helper_size="0"
       apply_no_weight="true"
       apply_with_weight="true"
       only_selected="false"
       uniform="false" />
    <inkscape:path-effect
       effect="bspline"
       id="path-effect17"
       is_visible="true"
       lpeversion="1.3"
       weight="33.333333"
       steps="2"
       helper_size="0"
       apply_no_weight="true"
       apply_with_weight="true"
       only_selected="false"
       uniform="false" />
    <inkscape:path-effect
       effect="bspline"
       id="path-effect15"
       is_visible="true"
       lpeversion="1.3"
       weight="33.333333"
       steps="2"
       helper_size="0"
       apply_no_weight="true"
       apply_with_weight="true"
       only_selected="false"
       uniform="false" />
    <inkscape:path-effect
       effect="bspline"
       id="path-effect13"
       is_visible="true"
       lpeversion="1.3"
       weight="33.333333"
       steps="2"
       helper_size="0"
       apply_no_weight="true"
       apply_with_weight="true"
       only_selected="false"
       uniform="false" />
    <inkscape:path-effect
       effect="bspline"
       id="path-effect11"
       is_visible="true"
       lpeversion="1.3"
       weight="33.333333"
       steps="2"
       helper_size="0"
       apply_no_weight="true"
       apply_with_weight="true"
       only_selected="false"
       uniform="false" />
    <linearGradient
       id="swatch42"
       inkscape:swatch="solid">
      <stop
         style="stop-color:#000000;stop-opacity:1;"
         offset="0"
         id="stop42" />
    </linearGradient>
    <linearGradient
       id="swatch41"
       inkscape:swatch="solid">
      <stop
         style="stop-color:#000000;stop-opacity:1;"
         offset="0"
         id="stop41" />
    </linearGradient>
    <inkscape:path-effect
       effect="spiro"
       id="path-effect7"
       is_visible="true"
       lpeversion="1" />
    <linearGradient
       id="linearGradient1"
       inkscape:collect="always">
      <stop
         style="stop-color:#4881ee;stop-opacity:1;"
         offset="0.11662167"
         id="stop1" />
      <stop
         style="stop-color:#2a7fff;stop-opacity:0;"
         offset="1"
         id="stop2" />
    </linearGradient>
    <linearGradient
       id="linearGradient8"
       inkscape:collect="always">
      <stop
         style="stop-color:#000000;stop-opacity:0.32506798;"
         offset="0"
         id="stop8" />
      <stop
         style="stop-color:#000000;stop-opacity:0;"
         offset="1"
         id="stop9" />
    </linearGradient>
    <inkscape:path-effect
       effect="spiro"
       id="path-effect8"
       is_visible="true"
       lpeversion="1" />
    <inkscape:path-effect
       effect="spiro"
       id="path-effect4"
       is_visible="true"
       lpeversion="1" />
    <rect
       x="148.91357"
       y="700.6992"
       width="8.2091228"
       height="126.62748"
       id="rect3" />
    <inkscape:path-effect
       effect="spiro"
       id="path-effect3"
       is_visible="true"
       lpeversion="1" />
    <linearGradient
       id="swatch19"
       inkscape:swatch="solid">
      <stop
         style="stop-color:#338000;stop-opacity:1;"
         offset="0"
         id="stop19" />
    </linearGradient>
    <inkscape:path-effect
       effect="spiro"
       id="path-effect10"
       is_visible="true"
       lpeversion="1" />
    <inkscape:path-effect
       effect="spiro"
       id="path-effect6"
       is_visible="true"
       lpeversion="1" />
    <inkscape:path-effect
       effect="spiro"
       id="path-effect5"
       is_visible="true"
       lpeversion="1" />
    <linearGradient
       inkscape:collect="always"
       xlink:href="#linearGradient1"
       id="linearGradient3"
       gradientUnits="userSpaceOnUse"
       x1="-0.47344531"
       y1="87.420774"
       x2="211.10214"
       y2="87.420774"
       gradientTransform="matrix(0.82445924,0,0,1.1967031,-175.23146,-211.94408)" />
    <linearGradient
       inkscape:collect="always"
       xlink:href="#linearGradient8"
       id="linearGradient4"
       gradientUnits="userSpaceOnUse"
       gradientTransform="matrix(0.83174555,0,0,1.1966672,-175.69315,-210.83966)"
       x1="0.083144248"
       y1="86.500489"
       x2="209.81054"
       y2="86.500489" />
    <linearGradient
       inkscape:collect="always"
       xlink:href="#swatch42"
       id="linearGradient45"
       gradientUnits="userSpaceOnUse"
       gradientTransform="matrix(0.40089376,-0.33961195,0.33022544,0.43939755,1.7226071,219.07385)"
       x1="273.63769"
       y1="115.07483"
       x2="295.92807"
       y2="115.07483" />
    <linearGradient
       inkscape:collect="always"
       xlink:href="#swatch42"
       id="linearGradient46"
       gradientUnits="userSpaceOnUse"
       gradientTransform="matrix(0.5165498,0.09606449,-0.13183662,0.53360862,-124.00527,80.46756)"
       x1="273.63769"
       y1="115.07483"
       x2="295.92807"
       y2="115.07483" />
    <linearGradient
       inkscape:collect="always"
       xlink:href="#swatch42"
       id="linearGradient50"
       gradientUnits="userSpaceOnUse"
       gradientTransform="matrix(0.5223813,0.05630154,-0.09066514,0.54212442,54.423649,91.412494)"
       x1="273.63769"
       y1="115.07483"
       x2="295.92807"
       y2="115.07483" />
  </defs>
  <g
     inkscape:label="Camada 1"
     inkscape:groupmode="layer"
     id="layer1">
    <g
       id="path5"
       transform="matrix(0.72956443,0,0,-1.4962208,605.8525,49.544397)">
      <path
         style="color:#000000;fill:#000000;-inkscape-stroke:none"
         d="M 110.77566,37.554024 C 105.938,37.375839 101.10033,37.197801 96.26266,37.01991 92.873284,36.895276 89.483905,36.770714 86.094524,36.646225"
         id="path6" />
    </g>
    <g
       id="ellipse33" />
    <text
       xml:space="preserve"
       transform="scale(0.26458333)"
       id="text3"
       style="fill:#286500;stroke:#000000;stroke-width:9.99998665;stroke-linecap:square;stroke-linejoin:bevel;fill-opacity:0.29803923;white-space:pre;shape-inside:url(#rect3)" />
    <path
       id="path2"
       style="fill:#ffffff;stroke:#000000;stroke-width:1.10399;stroke-linecap:square;stroke-linejoin:bevel;stroke-opacity:1"
       d="m 167.28881,4.7687064 a 16.678841,20.665356 0 0 0 -16.67879,20.6652826 16.678841,20.665356 0 0 0 1.80939,9.269959 19.62239,16.053322 0 0 0 -4.71649,10.38945 19.62239,16.053322 0 0 0 19.62272,16.053541 19.62239,16.053322 0 0 0 18.24073,-10.180202 19.796985,17.082409 0 0 0 3.8662,0.370679 19.796985,17.082409 0 0 0 19.79732,-17.082227 19.796985,17.082409 0 0 0 -19.79732,-17.082226 19.796985,17.082409 0 0 0 -6.53332,0.999731 16.678841,20.665356 0 0 0 -15.61044,-13.4039876 z m -19.0124,88.0387596 a 0.01470719,0.01559249 0 0 0 -0.0149,0.0158 0.01470719,0.01559249 0 0 0 0.0149,0.0153 0.01470719,0.01559249 0 0 0 0.0149,-0.0153 0.01470719,0.01559249 0 0 0 -4.2e-4,-0.002 0.01470719,0.01559249 0 0 0 -4.1e-4,-0.003 0.01470719,0.01559249 0 0 0 -4.1e-4,-0.003 0.01470719,0.01559249 0 0 0 -8e-4,-0.002 0.01470719,0.01559249 0 0 0 -4.2e-4,-0.002 0.01470719,0.01559249 0 0 0 -0.002,-0.002 0.01470719,0.01559249 0 0 1 -4.1e-4,-4.4e-4 0.01470719,0.01559249 0 0 1 -4.2e-4,-4.5e-4 0.01470719,0.01559249 0 0 0 -0.002,-0.002 0.01470719,0.01559249 0 0 0 -0.002,-8.5e-4 0.01470719,0.01559249 0 0 0 -0.002,-4.3e-4 0.01470719,0.01559249 0 0 0 -0.002,-8.5e-4 0.01470719,0.01559249 0 0 0 -0.003,-4.3e-4 0.01470719,0.01559249 0 0 0 -0.002,-4.4e-4 z" />
    <rect
       style="opacity:1;fill:url(#linearGradient3);stroke:url(#linearGradient4);stroke-width:1.19463;stroke-linecap:square;stroke-linejoin:bevel;stroke-opacity:0.325068"
       id="rect2"
       width="173.44388"
       height="209.80182"
       x="-175.12605"
       y="-212.22832"
       inkscape:transform-center-x="5.839592"
       inkscape:transform-center-y="-1.8887705"
       transform="matrix(0.00859057,-0.9999631,-1,-3.3288162e-5,0,0)" />
    <path
       id="path45"
       style="fill:#00aa00;fill-opacity:0.851948;stroke:url(#linearGradient45);stroke-width:0.536936"
       d="m 155.62486,160.20211 c -0.0117,-4.1e-4 -0.0227,0.002 -0.0324,0.009 -0.20074,0.13438 -0.28397,1.61761 -0.29753,1.70148 0.0675,0.57929 0.36606,1.23295 0.2902,1.78743 -0.0439,0.32091 -0.4138,0.47478 -0.54178,0.70638 -0.10538,0.47607 -0.0213,0.28856 -0.19795,0.58902 -0.0591,0.10059 -0.11903,0.22292 -0.18038,0.35078 -0.37983,-0.10148 -0.9255,-0.037 -1.24984,-0.19533 -1.25255,-0.61139 -2.44038,-0.74138 -3.73434,-0.46728 -0.38955,0.0828 -0.84754,-0.12679 -1.22947,-0.0568 -0.21729,0.0397 -0.38568,0.23684 -0.60174,0.28269 -0.22048,0.0466 -0.9806,-0.57551 -1.07647,-0.40513 -0.12214,0.21705 0.41556,1.60803 0.43811,1.69086 0.2984,0.49618 0.83187,0.95126 0.99327,1.49243 0.0934,0.31321 -0.17018,0.62791 -0.18788,0.89931 0.1025,0.48368 0.10008,0.273 0.0677,0.63012 -0.0379,0.41735 0.0282,1.06382 -0.13047,1.44059 -0.0521,0.12375 -0.18044,0.20832 -0.20496,0.34234 -0.11979,0.65411 0.58045,1.11985 0.52816,1.75268 -0.0108,0.13073 -0.12355,0.22821 -0.14995,0.35587 -0.0472,0.22787 0.21684,0.6293 0.26357,0.839 0.0459,0.2066 -0.10388,0.45618 -0.0603,0.66334 0.11288,0.53538 0.80743,0.98637 0.93939,1.5211 0.0938,0.37935 0.61182,1.35527 0.99495,1.56961 0.49656,0.27779 1.09295,0.44678 1.55939,0.77479 0.34339,0.24147 0.52523,0.64846 0.86903,0.88894 0.22931,0.1604 0.66095,0.004 0.91277,0.12457 0.40661,0.19516 0.90031,0.42116 1.30365,0.6531 0.11004,0.0633 0.25786,-0.0117 0.36843,0.0503 0.23129,0.12974 0.0976,0.2657 0.40969,0.30828 0.30644,0.0418 0.44747,0.21009 0.68545,0.34804 0.32058,0.1858 0.85932,0.12961 1.20397,0.29771 0.45151,0.22022 0.35228,0.30372 0.78886,0.45938 0.29001,0.10337 0.64348,0.0107 0.92915,0.12686 0.1193,0.0485 0.90687,0.36994 0.94184,0.26145 0.0299,-0.0927 0.0667,-0.14806 0.10453,-0.19667 0.14515,0.13963 0.28117,0.25477 0.31489,0.21978 0.17072,-0.17711 0.28533,-0.13021 0.44238,-0.26904 0.25035,-0.22142 0.23449,-0.59992 0.38813,-0.85558 0.0973,-0.16185 0.41806,-0.33542 0.48061,-0.61359 0.002,-0.003 -0.0179,-0.0839 -0.035,-0.15855 0.0519,-0.033 0.10195,-0.0698 0.14668,-0.11844 0.13472,-0.14633 0.17196,-0.30173 0.29147,-0.47286 0.11408,-0.16329 0.45687,-0.13798 0.57471,-0.29855 0.0563,-0.0768 0.0263,-0.20493 0.0842,-0.28033 0.10163,-0.1323 0.34897,-0.20919 0.44126,-0.35109 0.0633,-0.0973 0.0359,-0.24519 0.10223,-0.34004 0.17077,-0.24417 0.66336,-0.23244 0.86611,-0.44999 0.0992,-0.10645 0.18693,-0.28609 0.29302,-0.39124 0.14433,-0.14304 0.465,-0.14084 0.58573,-0.30448 0.06,-0.0813 0.029,-0.21643 0.0894,-0.29742 0.15875,-0.21287 0.22894,-0.0204 0.37969,-0.19776 0.005,-0.005 0.096,-0.32976 0.10038,-0.33344 0.12306,-0.10117 0.30959,-0.10154 0.41989,-0.21818 0.0766,-0.081 0.0402,-0.23496 0.0995,-0.33119 0.31481,-0.51001 0.61231,-1.1844 1.01562,-1.57054 0.23993,-0.22974 0.18632,-0.9183 0.36466,-1.21302 -0.007,-0.35815 0.36661,-0.22696 0.48991,-0.40368 0.16864,-0.24171 0.26333,-0.87596 0.35044,-1.16568 0.0816,-0.27149 0.11846,-0.14893 0.26532,-0.358 0.50191,-0.71441 0.25475,-1.77829 0.26302,-2.5264 0.001,-0.12339 0.10669,-0.22576 0.10512,-0.34923 -0.006,-0.43776 -0.53935,-1.02381 -0.61306,-1.4819 -0.23196,-1.44128 -0.80515,-2.57562 -1.75662,-3.59657 -0.28647,-0.30739 -0.38269,-0.82694 -0.65497,-1.13391 -0.15486,-0.17466 -0.40538,-0.22434 -0.56431,-0.39479 -0.16218,-0.17385 -0.10568,-1.17849 -0.29415,-1.1766 -0.24005,0.002 -1.02719,1.20431 -1.07943,1.26739 -0.2202,0.52448 -0.27446,1.23885 -0.60795,1.66346 -0.19298,0.24574 -0.59046,0.17151 -0.81381,0.29582 -0.32145,0.3424 -0.15736,0.23117 -0.45645,0.38657 -0.1576,0.0818 -0.34096,0.2063 -0.52894,0.32354 -0.20052,-0.12077 -0.39534,-0.24331 -0.51141,-0.39083 -0.8897,-1.13064 -1.91881,-1.80522 -3.21118,-2.17249 -0.38912,-0.11058 -0.72021,-0.51126 -1.09715,-0.62933 -0.21443,-0.0672 -0.4491,0.0274 -0.66494,-0.0339 -0.20643,-0.0586 -0.60297,-0.86059 -0.7816,-0.87371 z" />
    <path
       id="path50"
       style="fill:#00aa00;fill-opacity:0.851948;stroke:url(#linearGradient50);stroke-width:0.536936"
       d="m 203.16531,162.31877 c -0.008,-0.009 -0.0171,-0.0152 -0.0285,-0.018 -0.23572,-0.0528 -1.36759,0.9094 -1.43769,0.95739 -0.37313,0.44821 -0.64082,1.11512 -1.0948,1.4424 -0.26276,0.1894 -0.62919,0.0275 -0.8852,0.0945 -0.41752,0.25185 -0.22371,0.1835 -0.56316,0.26265 -0.11363,0.0265 -0.24353,0.0674 -0.37845,0.11115 -0.18832,-0.34512 -0.61119,-0.69598 -0.72009,-1.04007 -0.42055,-1.32885 -1.14523,-2.27895 -2.23579,-3.02737 -0.3285,-0.22512 -0.49241,-0.70138 -0.80636,-0.92983 -0.17855,-0.13004 -0.43745,-0.11613 -0.61961,-0.24104 -0.18571,-0.12763 -0.25907,-1.1071 -0.44859,-1.05909 -0.24143,0.0611 -0.87842,1.40954 -0.92287,1.48298 -0.15373,0.55822 -0.11566,1.25838 -0.39644,1.74837 -0.1625,0.28356 -0.57219,0.30957 -0.78099,0.48384 -0.27972,0.40768 -0.12876,0.26071 -0.40979,0.48343 -0.32844,0.26027 -0.75124,0.75376 -1.13354,0.89856 -0.12558,0.0476 -0.27531,0.0129 -0.3893,0.0875 -0.55641,0.36413 -0.41112,1.19245 -0.90558,1.59083 -0.10216,0.0823 -0.25048,0.0678 -0.36116,0.1367 -0.19758,0.12292 -0.3064,0.5909 -0.4261,0.76931 -0.11797,0.17569 -0.40207,0.23921 -0.52208,0.41362 -0.31002,0.45084 -0.15794,1.26489 -0.45438,1.72908 -0.2101,0.32948 -0.56002,1.37748 -0.45118,1.80279 0.14108,0.55122 0.42978,1.09975 0.51371,1.66376 0.0618,0.41522 -0.10769,0.82751 -0.0449,1.24233 0.0419,0.2767 0.45294,0.4814 0.53898,0.74712 0.13894,0.42909 0.31555,0.94253 0.42557,1.39461 0.03,0.12333 0.18621,0.17874 0.21756,0.30156 0.0654,0.25699 -0.12521,0.25384 0.0591,0.50931 0.18095,0.25081 0.15628,0.46898 0.2204,0.73647 0.0864,0.36032 0.49847,0.71186 0.61429,1.07741 0.15172,0.4789 0.0228,0.46457 0.21102,0.88814 0.12503,0.28135 0.43585,0.47352 0.54862,0.76055 0.0471,0.11993 0.35716,0.91198 0.45987,0.86253 0.0878,-0.0422 0.15325,-0.0538 0.21453,-0.0599 -0.001,0.20141 0.009,0.37931 0.0579,0.37963 0.24599,0.002 0.29101,0.11698 0.49987,0.13496 0.33298,0.0287 0.59624,-0.2437 0.88735,-0.30864 0.18433,-0.0411 0.53119,0.0717 0.77582,-0.0748 0.003,-0.001 0.0484,-0.0709 0.0908,-0.13463 0.0596,0.0152 0.12083,0.0257 0.18692,0.0246 0.19889,-0.003 0.33712,-0.0834 0.54348,-0.11481 0.19695,-0.03 0.41489,0.23585 0.61245,0.21052 0.0944,-0.0122 0.16659,-0.12222 0.2611,-0.13229 0.1659,-0.0176 0.39211,0.1086 0.55852,0.0776 0.11408,-0.0213 0.20235,-0.14305 0.31681,-0.16036 0.2946,-0.0446 0.62567,0.32032 0.92305,0.31718 0.14548,-0.002 0.33611,-0.0618 0.48542,-0.0574 0.20312,0.006 0.42259,0.23972 0.62436,0.21439 0.10027,-0.0126 0.17677,-0.12819 0.27711,-0.14024 0.26365,-0.0317 0.17262,0.15173 0.40492,0.13899 0.007,4e-5 0.30505,-0.1578 0.31075,-0.15714 0.15812,0.0194 0.28696,0.1543 0.44749,0.15382 0.11144,-3.6e-4 0.1979,-0.13288 0.30853,-0.15621 0.58648,-0.12352 1.2801,-0.37291 1.83786,-0.34693 0.33182,0.0154 0.79368,-0.49808 1.13012,-0.57204 0.25479,-0.25178 0.41713,0.10914 0.63016,0.0766 0.29135,-0.0445 0.81609,-0.41309 1.08602,-0.5497 0.25294,-0.12801 0.18955,-0.0169 0.44223,-0.0546 0.86354,-0.1289 1.46385,-1.04133 2.0115,-1.55106 0.0903,-0.0841 0.23709,-0.0783 0.32546,-0.16459 0.31329,-0.3058 0.3699,-1.09647 0.6509,-1.46567 0.88418,-1.1616 1.31079,-2.35879 1.39448,-3.75186 0.0252,-0.41944 0.33523,-0.8473 0.36997,-1.25614 0.0198,-0.23258 -0.11694,-0.44831 -0.10303,-0.68094 0.0142,-0.23733 0.78088,-0.88897 0.64958,-1.0242 -0.16723,-0.17222 -1.58053,0.0861 -1.66224,0.0917 -0.53174,0.20204 -1.08664,0.6552 -1.62413,0.70632 -0.31106,0.0296 -0.53129,-0.3095 -0.77531,-0.38561 -0.46964,0.003 -0.27594,0.0454 -0.5947,-0.0642 -0.1679,-0.0577 -0.38449,-0.10478 -0.59901,-0.16013 -0.0507,-0.22852 -0.0963,-0.45412 -0.0694,-0.6399 0.20574,-1.42394 -0.015,-2.63447 -0.63985,-3.82387 -0.18814,-0.35811 -0.12612,-0.87417 -0.30042,-1.22863 -0.0992,-0.20165 -0.32945,-0.30645 -0.43386,-0.50504 -0.0999,-0.18993 0.20777,-1.03007 0.0941,-1.16851 z" />
    <path
       id="path46"
       style="fill:#00aa00;fill-opacity:0.851948;stroke:url(#linearGradient46);stroke-width:0.536936"
       d="m 18.881597,162.53531 c -0.0074,-0.01 -0.01593,-0.0164 -0.02703,-0.0202 -0.230986,-0.0707 -1.433089,0.80221 -1.506657,0.84471 -0.406298,0.41838 -0.724173,1.06288 -1.201859,1.3545 -0.276457,0.16876 -0.629447,-0.0207 -0.889817,0.0265 -0.435547,0.2192 -0.237088,0.16587 -0.581598,0.21883 -0.115323,0.0177 -0.247958,0.0486 -0.385828,0.0819 -0.161397,-0.35851 -0.556204,-0.74066 -0.638495,-1.09207 -0.317744,-1.3571 -0.967683,-2.35982 -1.997856,-3.18941 -0.31033,-0.24957 -0.437352,-0.73696 -0.732928,-0.98873 -0.168087,-0.14331 -0.427282,-0.14926 -0.59937,-0.2877 -0.175408,-0.14146 -0.173693,-1.12367 -0.3663325,-1.09029 -0.245397,0.0426 -0.983595,1.33828 -1.033528,1.40811 -0.195947,0.54483 -0.21151,1.24586 -0.528894,1.71295 -0.1836996,0.27032 -0.5941884,0.26493 -0.8157028,0.42273 -0.3100582,0.38512 -0.1483097,0.2501 -0.445544,0.45069 -0.3473702,0.23441 -0.8066466,0.69414 -1.1989058,0.80929 -0.1288503,0.0379 -0.2754835,-0.008 -0.3948442,0.0575 -0.5826313,0.32053 -0.5010574,1.15753 -1.0245294,1.51695 -0.1081303,0.0743 -0.2549415,0.0485 -0.3705464,0.10869 -0.2063968,0.10747 -0.350671,0.56575 -0.4836502,0.7345 -0.1310581,0.16616 -0.419188,0.20777 -0.5521839,0.3725 -0.3435708,0.42582 -0.2541519,1.24912 -0.5852063,1.6893 -0.2346695,0.31246 -0.6636685,1.33064 -0.587649,1.76302 0.09853,0.56039 0.34445,1.12938 0.3850329,1.69816 0.029881,0.41873 -0.1706119,0.81686 -0.1397049,1.23528 0.020643,0.27909 0.4148018,0.5146 0.4802961,0.78611 0.1057274,0.43847 0.2425882,0.9639 0.3177204,1.42307 0.020445,0.12525 0.1720084,0.19245 0.1938826,0.31731 0.045586,0.26123 -0.1442222,0.24353 0.020004,0.51233 0.1612327,0.26391 0.1199703,0.47956 0.1634562,0.75117 0.058593,0.36586 0.4426002,0.74787 0.5301404,1.1212 0.1146595,0.4891 -0.012773,0.46496 0.1425151,0.90168 0.1031574,0.29007 0.3983732,0.50544 0.4888935,0.80026 0.03783,0.12318 0.2863962,0.9366 0.3925857,0.89514 0.090829,-0.0354 0.1569302,-0.0419 0.2184704,-0.0433 -0.016481,0.20074 -0.019751,0.37891 0.028641,0.38293 0.2451593,0.0204 0.2812105,0.13891 0.4881063,0.17274 0.3298166,0.054 0.613124,-0.19741 0.9083418,-0.23991 0.1869365,-0.0269 0.5241424,0.11206 0.7792695,-0.0153 0.00332,-0.001 0.053629,-0.0669 0.1008319,-0.12729 0.058178,0.0201 0.1185124,0.0349 0.1844849,0.0388 0.1985638,0.0119 0.3425086,-0.0574 0.5506607,-0.0729 0.1986709,-0.0148 0.3956603,0.26689 0.5945673,0.25673 0.09507,-0.005 0.175449,-0.10913 0.270454,-0.11194 0.166772,-0.005 0.382641,0.1383 0.550963,0.12007 0.115362,-0.0124 0.212685,-0.12716 0.328122,-0.13568 0.2971657,-0.022 0.5993587,0.3672 0.8961167,0.3868 0.145172,0.01 0.339856,-0.0359 0.48839,-0.0201 0.202062,0.0215 0.403036,0.27132 0.606136,0.26148 0.100952,-0.005 0.186063,-0.11431 0.287025,-0.11865 0.265322,-0.0115 0.160523,0.16448 0.393097,0.16958 0.007,5.5e-4 0.316229,-0.13403 0.321863,-0.13293 0.156161,0.0315 0.274322,0.17577 0.434428,0.18757 0.111148,0.008 0.207479,-0.11736 0.319565,-0.13218 0.594205,-0.0783 1.304859,-0.27396 1.858996,-0.20543 0.32967,0.0408 0.829431,-0.43595 1.170529,-0.48399 0.2733,-0.23157 0.407585,0.14065 0.622491,0.1245 0.29387,-0.022 0.845266,-0.34951 1.124855,-0.46509 0.261984,-0.1083 0.190286,-0.002 0.445101,-0.0206 0.870864,-0.0625 1.539164,-0.92638 2.12418,-1.39276 0.09653,-0.0769 0.242383,-0.06 0.337086,-0.13923 0.335754,-0.28097 0.452612,-1.065 0.761022,-1.41164 0.970384,-1.09061 1.487255,-2.2517 1.677176,-3.63429 0.05722,-0.41628 0.399001,-0.81921 0.464884,-1.2242 0.03734,-0.23041 -0.08233,-0.45593 -0.05068,-0.68683 0.0323,-0.23554 0.846536,-0.82668 0.725959,-0.97154 -0.153573,-0.1845 -1.582474,-0.035 -1.664374,-0.0356 -0.545634,0.16081 -1.133548,0.57023 -1.673377,0.58012 -0.312408,0.006 -0.506078,-0.34921 -0.743573,-0.44376 -0.468489,-0.0328 -0.278589,0.0241 -0.587967,-0.10984 -0.163004,-0.0704 -0.375356,-0.13387 -0.585012,-0.20546 -0.03314,-0.23172 -0.06128,-0.46014 -0.02032,-0.64332 0.313996,-1.40406 0.186399,-2.62792 -0.345706,-3.8616 -0.16021,-0.37144 -0.05894,-0.88126 -0.205636,-1.248 -0.08345,-0.20864 -0.305061,-0.33073 -0.393982,-0.53673 -0.08504,-0.197 0.285911,-1.01116 0.183218,-1.15788 z" />
    <rect
       style="opacity:1;fill:#009800;fill-opacity:1;stroke:#44aa02;stroke-width:1.00911;stroke-linecap:square;stroke-linejoin:bevel;stroke-dasharray:none;stroke-dashoffset:0;stroke-opacity:1"
       id="rect78"
       width="209.22466"
       height="123.46212"
       x="0.95294648"
       y="173.80745"
       transform="skewY(-0.07466136)" />
    <path
       style="fill:#002e00;fill-opacity:0.48997101;stroke-width:0.345809"
       id="path3"
       sodipodi:type="arc"
       sodipodi:cx="143.70467"
       sodipodi:cy="235.3833"
       sodipodi:rx="31.292637"
       sodipodi:ry="31.692183"
       sodipodi:start="0"
       sodipodi:end="6.2768331"
       sodipodi:arc-type="slice"
       d="m 174.9973,235.3833 a 31.292637,31.692183 0 0 1 -31.24294,31.69214 31.292637,31.692183 0 0 1 -31.34217,-31.59148 31.292637,31.692183 0 0 1 31.14339,-31.79248 31.292637,31.692183 0 0 1 31.44109,31.49051 l -31.292,0.20131 z" />
    <path
       style="fill:#002c00;fill-opacity:0.489971;stroke-width:0.371337"
       id="path4"
       sodipodi:type="arc"
       sodipodi:cx="106.97306"
       sodipodi:cy="211.58984"
       sodipodi:rx="37.754726"
       sodipodi:ry="30.289202"
       sodipodi:start="0"
       sodipodi:end="6.2768331"
       sodipodi:arc-type="slice"
       d="m 144.72779,211.58984 a 37.754726,30.289202 0 0 1 -37.69477,30.28917 37.754726,30.289202 0 0 1 -37.814495,-30.19296 37.754726,30.289202 0 0 1 37.574665,-30.38506 37.754726,30.289202 0 0 1 37.93384,30.09645 l -37.75397,0.1924 z" />
    <path
       style="fill:#232323;fill-opacity:0.48997101;stroke-width:0.339855"
       id="path8"
       sodipodi:type="arc"
       sodipodi:cx="72.297653"
       sodipodi:cy="227.81787"
       sodipodi:rx="30.300856"
       sodipodi:ry="31.612173"
       sodipodi:start="0"
       sodipodi:end="6.2768331"
       sodipodi:arc-type="slice"
       d="M 102.59851,227.81787 A 30.300856,31.612173 0 0 1 72.345773,259.43 30.300856,31.612173 0 0 1 41.99695,227.91827 30.300856,31.612173 0 0 1 72.153296,196.20606 30.300856,31.612173 0 0 1 102.5979,227.61707 l -30.300247,0.2008 z" />
    <path
       style="fill:#004100;fill-opacity:0.489971;stroke-width:0.345809"
       id="path10"
       sodipodi:type="arc"
       sodipodi:cx="140.41359"
       sodipodi:cy="200.10817"
       sodipodi:rx="31.292637"
       sodipodi:ry="31.692183"
       sodipodi:start="0"
       sodipodi:end="6.2768331"
       sodipodi:arc-type="slice"
       d="m 171.70623,200.10817 a 31.292637,31.692183 0 0 1 -31.24295,31.69214 31.292637,31.692183 0 0 1 -31.34217,-31.59148 31.292637,31.692183 0 0 1 31.1434,-31.79248 31.292637,31.692183 0 0 1 31.44109,31.49051 l -31.29201,0.20131 z" />
  </g>
  <g
     inkscape:groupmode="layer"
     id="layer6"
     inkscape:label="Camada 6">
    <ellipse
       style="opacity:1;fill:#328000;fill-opacity:1;stroke:#000000;stroke-width:2.08195;stroke-linecap:square;stroke-linejoin:bevel;stroke-dasharray:none;stroke-opacity:1;paint-order:normal"
       id="path14"
       cx="106.65694"
       cy="181.03964"
       rx="48.111324"
       ry="36.935009" />
    <g
       id="g30"
       transform="translate(-14.34178,2.2750276)">
      <g
         id="g29"
         transform="translate(81.600956,-40.696506)">
        <g
           id="g28">
          <ellipse
             style="fill:#ffff00;stroke:#000000;stroke-width:1.85208"
             id="path7"
             cx="38.554596"
             cy="216.82239"
             rx="32.804375"
             ry="31.16559" />
        </g>
      </g>
    </g>
    <path
       id="path53"
       style="opacity:1;fill:#338000;fill-opacity:1;stroke:#000000;stroke-width:1.17969;stroke-linecap:square;stroke-linejoin:bevel;stroke-dasharray:none;stroke-opacity:1;paint-order:normal"
       d="m 124.35108,151.31344 a 7.3141456,14.292493 0.24468812 0 0 -4.16761,2.83907 7.2944241,14.402277 7.4568375 0 0 -3.15759,-2.39556 7.2944241,14.402277 7.4568375 0 0 -9.27547,12.81973 7.2944241,14.402277 7.4568375 0 0 5.05772,15.66233 7.2944241,14.402277 7.4568375 0 0 6.5297,-4.48023 7.3141456,14.292493 0.24468812 0 0 5.31758,4.12907 7.3141456,14.292493 0.24468812 0 0 6.23125,-7.39049 14.341868,7.3251478 81.297415 0 0 8.06577,6.77478 14.341868,7.3251478 81.297415 0 0 4.54846,-15.97704 14.341868,7.3251478 81.297415 0 0 -9.67421,-12.21283 14.341868,7.3251478 81.297415 0 0 -4.00976,4.67487 7.3141456,14.292493 0.24468812 0 0 -5.46584,-4.4437 z" />
    <path
       id="path54"
       style="opacity:1;fill:#338000;fill-opacity:1;stroke:#000000;stroke-width:1.17969;stroke-linecap:square;stroke-linejoin:bevel;stroke-dasharray:none;stroke-opacity:1;paint-order:normal"
       d="m 84.40992,152.06319 a 7.3141456,14.292493 0.24468812 0 0 -4.16761,2.83907 7.2944241,14.402277 7.4568375 0 0 -3.15759,-2.39556 7.2944241,14.402277 7.4568375 0 0 -9.27547,12.81973 7.2944241,14.402277 7.4568375 0 0 5.05772,15.66233 7.2944241,14.402277 7.4568375 0 0 6.5297,-4.48023 7.3141456,14.292493 0.24468812 0 0 5.31758,4.12907 7.3141456,14.292493 0.24468812 0 0 6.23126,-7.39049 14.341868,7.3251478 81.297415 0 0 8.06578,6.77478 14.341868,7.3251478 81.297415 0 0 4.54846,-15.97704 14.341868,7.3251478 81.297415 0 0 -9.67422,-12.21283 14.341868,7.3251478 81.297415 0 0 -4.00976,4.67487 7.3141456,14.292493 0.24468812 0 0 -5.46585,-4.4437 z" />
    <path
       id="path1"
       style="fill:#338000;stroke:#000000;stroke-width:2.72544;stroke-dasharray:none"
       d="m 163.34742,96.350043 c 4.92864,35.965287 -22.00306,66.192847 -56.08825,67.786767 -30.73919,1.43745 -68.87611,-21.75488 -63.14617,-65.133258 4.48479,-33.952007 36.36902,-76.23224 63.9813,-76.232243 27.61227,0 50.60308,39.646432 55.25312,73.578734 z"
       sodipodi:nodetypes="sssss" />
    <path
       id="path9"
       style="fill:#ffffff;stroke:#000000;stroke-width:2.30877;stroke-dasharray:none"
       d="M 98.00988,36.228859 C 86.44044,36.420071 70.9513,54.624009 65.76907,72.154765 58.46314,96.86975 72.01981,116.23377 85.2102,119.97507 c 6.60011,1.87203 13.23434,0.0797 18.712,-4.45586 7.74702,8.63736 18.82186,9.7182 27.04297,5.30055 13.89447,-7.46626 20.68165,-30.060303 13.43545,-49.841674 -6.83664,-18.663237 -22.10063,-37.0966 -33.54328,-31.792412 -1.15262,0.534303 -2.25872,1.335085 -3.31718,2.344506 -1.78289,-2.298439 -3.80957,-3.961269 -6.08116,-4.761305 -1.09718,-0.386421 -2.25226,-0.559802 -3.44912,-0.540016 z" />
    <ellipse
       style="fill:#000000;stroke:#000000;stroke-width:2.58712;stroke-dasharray:none"
       id="ellipse10"
       cx="89.370537"
       cy="67.354996"
       rx="6.9836922"
       ry="12.456986" />
    <ellipse
       style="fill:#000000;stroke:#000000;stroke-width:2.58712;stroke-dasharray:none"
       id="ellipse1"
       cx="118.38954"
       cy="67.26078"
       rx="6.9836922"
       ry="12.456986" />
    <path
       style="fill:none;fill-rule:evenodd;stroke:#000000;stroke-width:0.264583px;stroke-linecap:butt;stroke-linejoin:miter;stroke-opacity:1"
       d="m 58.08864,192.00457 2.61248,29.76983"
       id="path16"
       inkscape:connector-type="polyline"
       inkscape:connector-curvature="0" />
    <ellipse
       style="fill:#338000;stroke:#000000;stroke-width:3.84205;stroke-linecap:square;stroke-linejoin:bevel"
       id="ellipse25"
       cx="134.58449"
       cy="206.58125"
       rx="25.080381"
       ry="31.971729" />
    <ellipse
       style="opacity:1;fill:#008000;fill-opacity:1;stroke:#000000;stroke-width:1.25709;stroke-linecap:square;stroke-linejoin:bevel;stroke-dasharray:none;stroke-dashoffset:0"
       id="ellipse24"
       ry="28.676678"
       rx="25.398102"
       cy="215.38673"
       cx="134.52333"
       inkscape:transform-center-x="36.623286"
       inkscape:transform-center-y="21.345594" />
    <path
       style="fill:none;fill-rule:evenodd;stroke:#000000;stroke-width:0.327149px;stroke-linecap:butt;stroke-linejoin:miter;stroke-opacity:1"
       d="m 117.51197,192.96505 2.59525,45.81609"
       id="path25"
       inkscape:connector-type="polyline"
       inkscape:connector-curvature="0" />
    <path
       style="fill:none;fill-rule:evenodd;stroke:#000000;stroke-width:0.315301px;stroke-linecap:butt;stroke-linejoin:miter;stroke-opacity:1"
       d="m 128.74197,188.10433 1.44835,55.57871"
       id="path26"
       inkscape:connector-type="polyline"
       inkscape:connector-curvature="0" />
    <path
       style="fill:none;fill-rule:evenodd;stroke:#000000;stroke-width:0.297853px;stroke-linecap:butt;stroke-linejoin:miter;stroke-opacity:1"
       d="m 137.57559,188.12013 1.3943,56.11075"
       id="path27"
       inkscape:connector-type="polyline"
       inkscape:connector-curvature="0" />
    <path
       style="fill:none;fill-rule:evenodd;stroke:#000000;stroke-width:0.281768px;stroke-linecap:butt;stroke-linejoin:miter;stroke-opacity:1"
       d="m 145.78656,190.56739 1.99765,50.18193"
       id="path28"
       inkscape:connector-type="polyline"
       inkscape:connector-curvature="0" />
    <path
       style="fill:none;fill-rule:evenodd;stroke:#000000;stroke-width:0.286527px;stroke-linecap:butt;stroke-linejoin:miter;stroke-opacity:1"
       d="m 151.74984,195.34506 2.00146,40.26785"
       id="path29"
       inkscape:connector-type="polyline"
       inkscape:connector-curvature="0" />
    <ellipse
       style="fill:#338000;stroke:#000000;stroke-width:3.84205;stroke-linecap:square;stroke-linejoin:bevel"
       id="ellipse29"
       cx="77.160721"
       cy="206.09134"
       rx="25.080381"
       ry="31.971729" />
    <ellipse
       style="opacity:1;fill:#008000;fill-opacity:1;stroke:#000000;stroke-width:1.25709;stroke-linecap:square;stroke-linejoin:bevel;stroke-dasharray:none;stroke-dashoffset:0"
       id="ellipse30"
       ry="28.676678"
       rx="25.398102"
       cy="212.48546"
       cx="75.876419"
       inkscape:transform-center-x="36.623286"
       inkscape:transform-center-y="21.345594" />
    <path
       style="fill:none;fill-rule:evenodd;stroke:#000000;stroke-width:0.286527px;stroke-linecap:butt;stroke-linejoin:miter;stroke-opacity:1"
       d="m 93.21388,192.19304 2.00146,40.26785"
       id="path30"
       inkscape:connector-type="polyline"
       inkscape:connector-curvature="0" />
    <path
       style="fill:none;fill-rule:evenodd;stroke:#000000;stroke-width:0.281768px;stroke-linecap:butt;stroke-linejoin:miter;stroke-opacity:1"
       d="m 86.59475,187.19971 1.99765,50.18193"
       id="path31"
       inkscape:connector-type="polyline"
       inkscape:connector-curvature="0" />
    <path
       style="fill:none;fill-rule:evenodd;stroke:#000000;stroke-width:0.297853px;stroke-linecap:butt;stroke-linejoin:miter;stroke-opacity:1"
       d="m 78.06083,183.88299 1.3943,56.11075"
       id="path32"
       inkscape:connector-type="polyline"
       inkscape:connector-curvature="0" />
    <path
       style="fill:none;fill-rule:evenodd;stroke:#000000;stroke-width:0.315301px;stroke-linecap:butt;stroke-linejoin:miter;stroke-opacity:1"
       d="m 70.47257,185.43049 1.44835,55.57871"
       id="path33"
       inkscape:connector-type="polyline"
       inkscape:connector-curvature="0" />
    <path
       style="fill:none;fill-rule:evenodd;stroke:#000000;stroke-width:0.327149px;stroke-linecap:butt;stroke-linejoin:miter;stroke-opacity:1"
       d="m 117.51197,192.96505 2.59525,45.81609"
       id="path34"
       inkscape:connector-type="polyline"
       inkscape:connector-curvature="0" />
    <path
       style="fill:none;fill-rule:evenodd;stroke:#000000;stroke-width:0.327149px;stroke-linecap:butt;stroke-linejoin:miter;stroke-opacity:1"
       d="m 60.02066,190.63203 2.59525,45.81609"
       id="path35"
       inkscape:connector-type="polyline"
       inkscape:connector-curvature="0" />
    <circle
       id="path59"
       style="fill:#008000;stroke:#000000;stroke-width:0.264583"
       cx="47.274796"
       cy="31.539175"
       r="0.067044549" />
    <path
       id="path69"
       style="opacity:1;fill:#008000;fill-opacity:1;stroke:#000000;stroke-width:1.08955;stroke-linecap:square;stroke-linejoin:bevel;stroke-dasharray:none;stroke-dashoffset:0"
       d="m 73.44913,139.32872 c 0.3141,0.56199 0.75005,1.03624 1.2102,1.48047 0.9254,0.72082 1.93292,1.33227 2.95777,1.90016 1.18503,0.62351 2.46158,1.01366 3.75174,1.3493 1.4745,0.37377 2.97816,0.6095 4.48545,0.80227 1.40061,0.12869 2.79187,0.30901 4.18183,0.52228 1.23766,0.20334 2.48353,0.34679 3.73199,0.46334 1.20766,0.079 2.41736,-0.0279 3.61872,-0.14592 1.21261,-0.11226 2.37442,-0.4619 3.50988,-0.88429 1.24735,-0.48986 2.41377,-1.15274 3.55713,-1.84542 0.79077,-0.46716 1.52645,-1.01249 2.23579,-1.59336 0,0 -0.0771,0.0213 -0.0771,0.0213 v 0 c -0.67037,0.54771 -1.36259,1.06626 -2.10709,1.51089 -1.14268,0.69308 -2.3084,1.3564 -3.55486,1.84741 -1.13441,0.42308 -2.29506,0.77418 -3.50691,0.88715 -1.20065,0.11826 -2.40956,0.22583 -3.6166,0.14813 -1.24825,-0.11624 -2.49393,-0.25934 -3.73136,-0.46263 -1.39006,-0.21336 -2.78128,-0.39463 -4.18209,-0.52259 -1.50682,-0.19227 -3.01001,-0.42758 -4.48411,-0.80074 -1.28919,-0.33478 -2.56481,-0.72394 -3.74919,-1.34618 -1.02392,-0.56693 -2.03013,-1.17781 -2.95529,-1.89678 -0.45925,-0.44286 -0.89424,-0.91585 -1.20757,-1.47643 z m -5.45616,0.31435 c 0.66942,0 1.33884,0 2.00827,0 0.89338,0.0239 1.77662,-0.0844 2.64652,-0.27871 1.06009,-0.25585 2.07239,-0.63781 3.05663,-1.10238 0.82036,-0.38985 1.58002,-0.88302 2.3047,-1.42712 0,0 -0.0773,0.0207 -0.0773,0.0207 v 0 c -0.68473,0.51282 -1.39703,0.98274 -2.17458,1.34638 -0.98335,0.46538 -1.99457,0.84818 -3.05402,1.10478 -0.86892,0.19543 -1.75131,0.30504 -2.64403,0.28121 -0.66943,0 -1.33885,0 -2.00828,0 z" />
    <path
       style="opacity:1;fill:#000000;fill-opacity:1;stroke:#000000;stroke-width:0.365001;stroke-linecap:square;stroke-linejoin:bevel;stroke-dasharray:none;stroke-dashoffset:0"
       id="path76"
       d="m 120.65122,34.411919 c 0.72786,0.433855 1.49424,0.794377 2.24983,1.175898 0.94583,0.512194 1.91175,0.98547 2.88478,1.443366 0.93822,0.402 1.75802,0.992745 2.54378,1.633476 0.84512,0.707224 1.65518,1.454801 2.44401,2.223895 0.67324,0.662297 1.34069,1.330116 1.98553,2.020141 0.64392,0.665469 1.25856,1.358408 1.88721,2.038204 0.42561,0.469419 0.21402,0.235104 0.63481,0.70293 0,0 2.48412,-1.674972 2.48412,-1.674972 v 0 c -0.42331,-0.471167 -0.21009,-0.23445 -0.63968,-0.710128 -0.62972,-0.679839 -1.24379,-1.374399 -1.8885,-2.040088 -0.64965,-0.69804 -1.32139,-1.374241 -2.00119,-2.042965 -0.79879,-0.782931 -1.61905,-1.543894 -2.47367,-2.265915 -0.81589,-0.676463 -1.65785,-1.320546 -2.63424,-1.752886 -0.96889,-0.452034 -1.9354,-0.911655 -2.87228,-1.427587 -0.75339,-0.388311 -1.53711,-0.72289 -2.25285,-1.179727 z" />
    <path
       style="fill:#000000;fill-opacity:1;stroke:#000000;stroke-width:0.378044;stroke-linecap:square;stroke-linejoin:bevel;stroke-dasharray:none;stroke-dashoffset:0"
       id="path76-5"
       d="m 95.7463,32.052207 c -0.7814,0.43353 -1.60415,0.793772 -2.41532,1.175011 -1.01541,0.511812 -2.05238,0.984726 -3.09698,1.442269 -1.00723,0.401696 -1.88733,0.992008 -2.7309,1.632254 -0.90728,0.706681 -1.77693,1.453697 -2.62378,2.222208 -0.72276,0.661802 -1.43931,1.329117 -2.13158,2.018618 -0.69129,0.664968 -1.35114,1.357385 -2.02604,2.036667 -0.45691,0.46907 -0.22976,0.234925 -0.6815,0.702396 0,0 -2.66685,-1.673697 -2.66685,-1.673697 v 0 c 0.45445,-0.470818 0.22554,-0.234276 0.68674,-0.709598 0.67604,-0.679322 1.33528,-1.373368 2.02741,-2.038546 0.69744,-0.697521 1.41859,-1.373207 2.14839,-2.041422 0.85755,-0.782345 1.73815,-1.542736 2.65563,-2.26421 0.87591,-0.675945 1.7798,-1.319547 2.82801,-1.751569 1.04016,-0.451679 2.07777,-0.91096 3.08356,-1.426497 0.80881,-0.388021 1.65018,-0.722343 2.41857,-1.178837 z" />
    <path
       style="fill:#00ff00;fill-opacity:0.851948;stroke-width:0.264583"
       d="m 177.16939,192.09995 c 0,0 -56.69455,31.2424 -56.69455,31.2424"
       id="path15"
       inkscape:path-effect="#path-effect15"
       inkscape:original-d="m 177.16939,192.09995 -56.69455,31.2424" />
  </g>
  <g
     inkscape:groupmode="layer"
     id="layer5"
     inkscape:label="Camada 5">
    <circle
       id="path70"
       style="fill:#008000;stroke:#000000;stroke-width:0.264583"
       cx="34.120335"
       cy="248.56841"
       r="0.067044549" />
  </g>
  <g
     inkscape:groupmode="layer"
     id="layer2"
     inkscape:label="Camada 2">
    <circle
       id="path58"
       style="fill:#008000;stroke:#000000;stroke-width:0.264583"
       cx="215.97101"
       cy="40.7845"
       r="0.067044549" />
    <circle
       id="path71"
       style="fill:#008000;stroke:#000000;stroke-width:0.264583"
       cx="26.327583"
       cy="228.6864"
       r="0.067044549" />
  </g>
  <g
     inkscape:groupmode="layer"
     id="layer3"
     inkscape:label="Camada 3" />
  <g
     inkscape:groupmode="layer"
     id="layer4"
     inkscape:label="Camada 4" />
</svg>
