<?xml version="1.0" encoding="UTF-8" standalone="no"?>
<!-- Created with Inkscape (http://www.inkscape.org/) -->

<svg
   width="210mm"
   height="297mm"
   viewBox="0 0 210 297"
   version="1.1"
   id="svg3570"
   inkscape:version="1.3.2 (091e20ef0f, 2023-11-25)"
   sodipodi:docname="olinho.svg"
   xmlns:inkscape="http://www.inkscape.org/namespaces/inkscape"
   xmlns:sodipodi="http://sodipodi.sourceforge.net/DTD/sodipodi-0.dtd"
   xmlns="http://www.w3.org/2000/svg"
   xmlns:svg="http://www.w3.org/2000/svg"
   xmlns:rdf="http://www.w3.org/1999/02/22-rdf-syntax-ns#"
   xmlns:cc="http://creativecommons.org/ns#"
   xmlns:dc="http://purl.org/dc/elements/1.1/">
  <defs
     id="defs3564">
    <inkscape:path-effect
       effect="bspline"
       id="path-effect4193"
       is_visible="true"
       weight="33.333333"
       steps="2"
       helper_size="0"
       apply_no_weight="true"
       apply_with_weight="true"
       only_selected="false" />
    <inkscape:path-effect
       effect="bspline"
       id="path-effect4189"
       is_visible="true"
       weight="33.333333"
       steps="2"
       helper_size="0"
       apply_no_weight="true"
       apply_with_weight="true"
       only_selected="false" />
    <inkscape:path-effect
       effect="bspline"
       id="path-effect4185"
       is_visible="true"
       weight="33.333333"
       steps="2"
       helper_size="0"
       apply_no_weight="true"
       apply_with_weight="true"
       only_selected="false" />
    <inkscape:path-effect
       effect="bspline"
       id="path-effect4181"
       is_visible="true"
       weight="33.333333"
       steps="2"
       helper_size="0"
       apply_no_weight="true"
       apply_with_weight="true"
       only_selected="false" />
    <inkscape:path-effect
       effect="bspline"
       id="path-effect4177"
       is_visible="true"
       weight="33.333333"
       steps="2"
       helper_size="0"
       apply_no_weight="true"
       apply_with_weight="true"
       only_selected="false" />
  </defs>
  <sodipodi:namedview
     id="base"
     pagecolor="#ffffff"
     bordercolor="#666666"
     borderopacity="1.0"
     inkscape:pageopacity="0.0"
     inkscape:pageshadow="2"
     inkscape:zoom="0.70710678"
     inkscape:cx="345.06811"
     inkscape:cy="417.193"
     inkscape:document-units="mm"
     inkscape:current-layer="layer1"
     showgrid="false"
     inkscape:window-width="1920"
     inkscape:window-height="1011"
     inkscape:window-x="0"
     inkscape:window-y="0"
     inkscape:window-maximized="1"
     inkscape:showpageshadow="2"
     inkscape:pagecheckerboard="0"
     inkscape:deskcolor="#d1d1d1" />
  <metadata
     id="metadata3567">
    <rdf:RDF>
      <cc:Work
         rdf:about="">
        <dc:format>image/svg+xml</dc:format>
        <dc:type
           rdf:resource="http://purl.org/dc/dcmitype/StillImage" />
        <dc:title />
      </cc:Work>
    </rdf:RDF>
  </metadata>
  <g
     inkscape:label="Camada 1"
     inkscape:groupmode="layer"
     id="layer1">
    <path
       style="opacity:1;fill:#ffffff;fill-opacity:1;stroke:#000000;stroke-width:2.21285915;stroke-miterlimit:4;stroke-dasharray:none;stroke-opacity:1"
       d="M 321.75195 498.93164 A 91.111487 96.143777 0 0 0 295.81055 529.97852 A 91.111487 96.143777 0 0 0 377.23242 583.04297 A 91.111487 96.143777 0 0 0 457.04297 533.24219 A 91.111487 96.143777 0 0 0 433.50195 502.18555 A 56.643709 82.402594 0 0 1 433.3125 504.00977 A 56.643709 82.402594 0 0 1 431.91016 511.99023 A 56.643709 82.402594 0 0 1 429.96875 519.72852 A 56.643709 82.402594 0 0 1 427.50586 527.14453 A 56.643709 82.402594 0 0 1 424.54688 534.16602 A 56.643709 82.402594 0 0 1 421.12109 540.72461 A 56.643709 82.402594 0 0 1 417.26172 546.75 A 56.643709 82.402594 0 0 1 413.00781 552.1875 A 56.643709 82.402594 0 0 1 408.40234 556.97852 A 56.643709 82.402594 0 0 1 403.49023 561.07617 A 56.643709 82.402594 0 0 1 398.32227 564.44141 A 56.643709 82.402594 0 0 1 392.94922 567.03906 A 56.643709 82.402594 0 0 1 387.42383 568.8418 A 56.643709 82.402594 0 0 1 381.80469 569.83594 A 56.643709 82.402594 0 0 1 377.79688 570.04102 A 56.643709 82.402594 0 0 1 372.14258 569.62891 A 56.643709 82.402594 0 0 1 366.54297 568.39844 A 56.643709 82.402594 0 0 1 361.05859 566.36133 A 56.643709 82.402594 0 0 1 355.73828 563.53711 A 56.643709 82.402594 0 0 1 350.64062 559.95312 A 56.643709 82.402594 0 0 1 345.81445 555.64844 A 56.643709 82.402594 0 0 1 341.30664 550.66406 A 56.643709 82.402594 0 0 1 337.16406 545.04883 A 56.643709 82.402594 0 0 1 333.42578 538.86133 A 56.643709 82.402594 0 0 1 330.13281 532.16016 A 56.643709 82.402594 0 0 1 327.31641 525.01562 A 56.643709 82.402594 0 0 1 325.00195 517.49805 A 56.643709 82.402594 0 0 1 323.2168 509.68164 A 56.643709 82.402594 0 0 1 321.97852 501.64453 A 56.643709 82.402594 0 0 1 321.75195 498.93164 z "
       id="path4158"
       transform="scale(0.26458333)" />
    <path
       style="opacity:1;fill:#800000;fill-opacity:1;stroke:#000000;stroke-width:2.21285915;stroke-miterlimit:4;stroke-dasharray:none;stroke-opacity:1"
       d="M 333.74805 491.13086 A 91.111486 96.143776 0 0 0 321.75195 498.93164 A 56.643708 82.402593 0 0 0 321.97852 501.64453 A 56.643708 82.402593 0 0 0 323.2168 509.68164 A 56.643708 82.402593 0 0 0 325.00195 517.49805 A 56.643708 82.402593 0 0 0 327.31641 525.01562 A 56.643708 82.402593 0 0 0 330.13281 532.16016 A 56.643708 82.402593 0 0 0 333.42578 538.86133 A 56.643708 82.402593 0 0 0 337.16406 545.04883 A 56.643708 82.402593 0 0 0 341.30664 550.66406 A 56.643708 82.402593 0 0 0 345.81445 555.64844 A 56.643708 82.402593 0 0 0 350.64062 559.95312 A 56.643708 82.402593 0 0 0 355.73828 563.53711 A 56.643708 82.402593 0 0 0 361.05859 566.36133 A 56.643708 82.402593 0 0 0 366.54297 568.39844 A 56.643708 82.402593 0 0 0 372.14258 569.62891 A 56.643708 82.402593 0 0 0 377.79688 570.04102 A 56.643708 82.402593 0 0 0 381.80469 569.83594 A 56.643708 82.402593 0 0 0 387.42383 568.8418 A 56.643708 82.402593 0 0 0 392.94922 567.03906 A 56.643708 82.402593 0 0 0 398.32227 564.44141 A 56.643708 82.402593 0 0 0 403.49023 561.07617 A 56.643708 82.402593 0 0 0 408.40234 556.97852 A 56.643708 82.402593 0 0 0 413.00781 552.1875 A 56.643708 82.402593 0 0 0 417.26172 546.75 A 56.643708 82.402593 0 0 0 421.12109 540.72461 A 56.643708 82.402593 0 0 0 424.54688 534.16602 A 56.643708 82.402593 0 0 0 427.50586 527.14453 A 56.643708 82.402593 0 0 0 429.96875 519.72852 A 56.643708 82.402593 0 0 0 431.91016 511.99023 A 56.643708 82.402593 0 0 0 433.3125 504.00977 A 56.643708 82.402593 0 0 0 433.50195 502.18555 A 91.111486 96.143776 0 0 0 422.61914 494.17969 A 44.951791 81.822358 0 0 1 422.35742 497.32812 A 44.951791 81.822358 0 0 1 421.24609 505.25391 A 44.951791 81.822358 0 0 1 419.70508 512.93555 A 44.951791 81.822358 0 0 1 417.75195 520.30078 A 44.951791 81.822358 0 0 1 415.40234 527.27344 A 44.951791 81.822358 0 0 1 412.68359 533.78516 A 44.951791 81.822358 0 0 1 409.62109 539.76953 A 44.951791 81.822358 0 0 1 406.24414 545.16602 A 44.951791 81.822358 0 0 1 402.58984 549.92383 A 44.951791 81.822358 0 0 1 398.69141 553.99414 A 44.951791 81.822358 0 0 1 394.58984 557.33398 A 44.951791 81.822358 0 0 1 390.32617 559.91406 A 44.951791 81.822358 0 0 1 385.94336 561.70508 A 44.951791 81.822358 0 0 1 381.48242 562.68945 A 44.951791 81.822358 0 0 1 378.30273 562.89453 A 44.951791 81.822358 0 0 1 373.81445 562.48633 A 44.951791 81.822358 0 0 1 369.37109 561.26367 A 44.951791 81.822358 0 0 1 365.01758 559.24023 A 44.951791 81.822358 0 0 1 360.79688 556.43555 A 44.951791 81.822358 0 0 1 356.75195 552.87891 A 44.951791 81.822358 0 0 1 352.91992 548.60352 A 44.951791 81.822358 0 0 1 349.34375 543.6543 A 44.951791 81.822358 0 0 1 346.05664 538.07812 A 44.951791 81.822358 0 0 1 343.08984 531.93359 A 44.951791 81.822358 0 0 1 340.47656 525.28125 A 44.951791 81.822358 0 0 1 338.24023 518.1875 A 44.951791 81.822358 0 0 1 336.40625 510.72266 A 44.951791 81.822358 0 0 1 334.98828 502.96094 A 44.951791 81.822358 0 0 1 334.00391 494.98047 A 44.951791 81.822358 0 0 1 333.74805 491.13086 z "
       id="path4165"
       transform="scale(0.26458333)" />
    <path
       style="opacity:1;fill:#000000;fill-opacity:1;stroke:#000000;stroke-width:2.21285915;stroke-miterlimit:4;stroke-dasharray:none;stroke-opacity:1"
       d="M 333.74805 491.13086 A 44.951791 81.822358 0 0 0 334.00391 494.98047 A 44.951791 81.822358 0 0 0 334.98828 502.96094 A 44.951791 81.822358 0 0 0 336.40625 510.72266 A 44.951791 81.822358 0 0 0 338.24023 518.1875 A 44.951791 81.822358 0 0 0 340.47656 525.28125 A 44.951791 81.822358 0 0 0 343.08984 531.93359 A 44.951791 81.822358 0 0 0 346.05664 538.07812 A 44.951791 81.822358 0 0 0 349.34375 543.6543 A 44.951791 81.822358 0 0 0 352.91992 548.60352 A 44.951791 81.822358 0 0 0 356.75195 552.87891 A 44.951791 81.822358 0 0 0 360.79688 556.43555 A 44.951791 81.822358 0 0 0 365.01758 559.24023 A 44.951791 81.822358 0 0 0 369.37109 561.26367 A 44.951791 81.822358 0 0 0 373.81445 562.48633 A 44.951791 81.822358 0 0 0 378.30273 562.89453 A 44.951791 81.822358 0 0 0 381.48242 562.68945 A 44.951791 81.822358 0 0 0 385.94336 561.70508 A 44.951791 81.822358 0 0 0 390.32617 559.91406 A 44.951791 81.822358 0 0 0 394.58984 557.33398 A 44.951791 81.822358 0 0 0 398.69141 553.99414 A 44.951791 81.822358 0 0 0 402.58984 549.92383 A 44.951791 81.822358 0 0 0 406.24414 545.16602 A 44.951791 81.822358 0 0 0 409.62109 539.76953 A 44.951791 81.822358 0 0 0 412.68359 533.78516 A 44.951791 81.822358 0 0 0 415.40234 527.27344 A 44.951791 81.822358 0 0 0 417.75195 520.30078 A 44.951791 81.822358 0 0 0 419.70508 512.93555 A 44.951791 81.822358 0 0 0 421.24609 505.25391 A 44.951791 81.822358 0 0 0 422.35742 497.32812 A 44.951791 81.822358 0 0 0 422.61914 494.17969 A 91.111486 96.143776 0 0 0 375.61914 480.17969 A 91.111486 96.143776 0 0 0 333.74805 491.13086 z "
       id="path4115"
       transform="scale(0.26458333)" />
    <ellipse
       style="opacity:0.23299997;fill:#ffffff;fill-opacity:1;stroke:#000000;stroke-width:0.41246;stroke-miterlimit:4;stroke-dasharray:none;stroke-opacity:1"
       id="path4171"
       cx="104.36875"
       cy="133.83195"
       rx="3.9337614"
       ry="3.2655876" />
    <ellipse
       style="opacity:0.403;fill:#ffffff;fill-opacity:1;stroke:#000000;stroke-width:0.3990204;stroke-miterlimit:4;stroke-dasharray:none;stroke-opacity:1"
       id="path4173"
       cx="93.277069"
       cy="141.31551"
       rx="5.6777329"
       ry="5.5440984" />
    <path
       id="path4191"
       style="fill:none;stroke:#000000;stroke-width:0.282178px;stroke-linecap:butt;stroke-linejoin:miter;stroke-opacity:1"
       d="m 75.975381,122.13726 c 16.744308,-4.35851 59.031879,-20.73516 52.904879,-8.21023 m -49.832119,12.01126 c 15.720051,-5.62553 46.946819,-15.74423 49.832119,-12.01126 m -52.904879,8.21023 3.07276,3.80103"
       inkscape:connector-curvature="0"
       sodipodi:nodetypes="cccccc" />
    <path
       inkscape:connector-curvature="0"
       style="opacity:1;fill:#ffffff;fill-opacity:1;stroke:#000000;stroke-width:0.59686393;stroke-miterlimit:4;stroke-dasharray:none;stroke-opacity:1"
       d="m 50.20102,130.93841 a 25.056258,25.434386 0 0 1 7.134055,8.21331 25.056258,25.434386 0 0 1 -22.391548,14.03795 25.056258,25.434386 0 0 1 -21.948426,-13.17456 25.056258,25.434386 0 0 1 6.473936,-8.21589 15.577392,21.79922 0 0 0 0.05211,0.48259 15.577392,21.79922 0 0 0 0.385652,2.1112 15.577392,21.79922 0 0 0 0.5339,2.04712 15.577392,21.79922 0 0 0 0.677312,1.96187 15.577392,21.79922 0 0 0 0.813739,1.8575 15.577392,21.79922 0 0 0 0.942115,1.73505 15.577392,21.79922 0 0 0 1.061352,1.59398 15.577392,21.79922 0 0 0 1.169853,1.43848 15.577392,21.79922 0 0 0 1.266534,1.26743 15.577392,21.79922 0 0 0 1.350863,1.08402 15.577392,21.79922 0 0 0 1.421223,0.89026 15.577392,21.79922 0 0 0 1.477624,0.68719 15.577392,21.79922 0 0 0 1.519519,0.47691 15.577392,21.79922 0 0 0 1.5453,0.263 15.577392,21.79922 0 0 0 1.102175,0.0543 15.577392,21.79922 0 0 0 1.554968,-0.10903 15.577392,21.79922 0 0 0 1.539929,-0.32551 15.577392,21.79922 0 0 0 1.508241,-0.5389 15.577392,21.79922 0 0 0 1.46312,-0.74714 15.577392,21.79922 0 0 0 1.40189,-0.94813 15.577392,21.79922 0 0 0 1.327228,-1.13878 15.577392,21.79922 0 0 0 1.239678,-1.3186 15.577392,21.79922 0 0 0 1.139236,-1.48548 15.577392,21.79922 0 0 0 1.028052,-1.63688 15.577392,21.79922 0 0 0 0.905589,-1.77275 15.577392,21.79922 0 0 0 0.774528,-1.89006 15.577392,21.79922 0 0 0 0.636492,-1.98873 15.577392,21.79922 0 0 0 0.490928,-2.06781 15.577392,21.79922 0 0 0 0.340535,-2.12617 15.577392,21.79922 0 0 0 0.06231,-0.71769 z"
       id="path4158-6" />
    <path
       inkscape:connector-curvature="0"
       style="opacity:1;fill:#800000;fill-opacity:1;stroke:#000000;stroke-width:0.59686393;stroke-miterlimit:4;stroke-dasharray:none;stroke-opacity:1"
       d="m 46.902014,128.87476 a 25.056258,25.434386 0 0 1 3.299006,2.06365 15.577392,21.79922 0 0 1 -0.06231,0.71769 15.577392,21.79922 0 0 1 -0.340534,2.12617 15.577392,21.79922 0 0 1 -0.490928,2.06781 15.577392,21.79922 0 0 1 -0.636493,1.98873 15.577392,21.79922 0 0 1 -0.774528,1.89006 15.577392,21.79922 0 0 1 -0.905588,1.77275 15.577392,21.79922 0 0 1 -1.028052,1.63688 15.577392,21.79922 0 0 1 -1.139236,1.48548 15.577392,21.79922 0 0 1 -1.239678,1.3186 15.577392,21.79922 0 0 1 -1.327229,1.13878 15.577392,21.79922 0 0 1 -1.40189,0.94813 15.577392,21.79922 0 0 1 -1.46312,0.74714 15.577392,21.79922 0 0 1 -1.508241,0.5389 15.577392,21.79922 0 0 1 -1.539929,0.32551 15.577392,21.79922 0 0 1 -1.554968,0.10903 15.577392,21.79922 0 0 1 -1.102174,-0.0543 15.577392,21.79922 0 0 1 -1.545301,-0.263 15.577392,21.79922 0 0 1 -1.519519,-0.47691 15.577392,21.79922 0 0 1 -1.477623,-0.68719 15.577392,21.79922 0 0 1 -1.421223,-0.89026 15.577392,21.79922 0 0 1 -1.350863,-1.08402 15.577392,21.79922 0 0 1 -1.266535,-1.26743 15.577392,21.79922 0 0 1 -1.169853,-1.43848 15.577392,21.79922 0 0 1 -1.061352,-1.59398 15.577392,21.79922 0 0 1 -0.942115,-1.73505 15.577392,21.79922 0 0 1 -0.813739,-1.8575 15.577392,21.79922 0 0 1 -0.677311,-1.96187 15.577392,21.79922 0 0 1 -0.5339,-2.04712 15.577392,21.79922 0 0 1 -0.385653,-2.1112 15.577392,21.79922 0 0 1 -0.05211,-0.48259 25.056258,25.434386 0 0 1 2.992844,-2.11791 12.362038,21.645721 0 0 0 0.07198,0.8329 12.362038,21.645721 0 0 0 0.305623,2.09673 12.362038,21.645721 0 0 0 0.423787,2.03215 12.362038,21.645721 0 0 0 0.537124,1.94843 12.362038,21.645721 0 0 0 0.646159,1.84458 12.362038,21.645721 0 0 0 0.747674,1.72265 12.362038,21.645721 0 0 0 0.842207,1.58314 12.362038,21.645721 0 0 0 0.928684,1.42761 12.362038,21.645721 0 0 0 1.004957,1.25866 12.362038,21.645721 0 0 0 1.072093,1.07678 12.362038,21.645721 0 0 0 1.127959,0.88354 12.362038,21.645721 0 0 0 1.172537,0.68254 12.362038,21.645721 0 0 0 1.205302,0.47382 12.362038,21.645721 0 0 0 1.226788,0.26041 12.362038,21.645721 0 0 0 0.874436,0.0543 12.362038,21.645721 0 0 0 1.234305,-0.10799 12.362038,21.645721 0 0 0 1.221953,-0.32345 12.362038,21.645721 0 0 0 1.197244,-0.53529 12.362038,21.645721 0 0 0 1.16072,-0.74196 12.362038,21.645721 0 0 0 1.112382,-0.9409 12.362038,21.645721 0 0 0 1.053834,-1.13104 12.362038,21.645721 0 0 0 0.98347,-1.30929 12.362038,21.645721 0 0 0 0.903977,-1.47515 12.362038,21.645721 0 0 0 0.81589,-1.6255 12.362038,21.645721 0 0 0 0.718669,-1.75985 12.362038,21.645721 0 0 0 0.615006,-1.87662 12.362038,21.645721 0 0 0 0.504356,-1.97479 12.362038,21.645721 0 0 0 0.38995,-2.05332 12.362038,21.645721 0 0 0 0.270709,-2.1112 12.362038,21.645721 0 0 0 0.07037,-1.01839 z"
       id="path4165-2" />
    <path
       inkscape:connector-curvature="0"
       style="opacity:1;fill:#000000;fill-opacity:1;stroke:#000000;stroke-width:0.59686393;stroke-miterlimit:4;stroke-dasharray:none;stroke-opacity:1"
       d="m 46.902014,128.87476 a 12.362038,21.645721 0 0 1 -0.07037,1.01839 12.362038,21.645721 0 0 1 -0.270708,2.1112 12.362038,21.645721 0 0 1 -0.389951,2.05332 12.362038,21.645721 0 0 1 -0.504356,1.97479 12.362038,21.645721 0 0 1 -0.615006,1.87662 12.362038,21.645721 0 0 1 -0.718669,1.75985 12.362038,21.645721 0 0 1 -0.81589,1.6255 12.362038,21.645721 0 0 1 -0.903977,1.47515 12.362038,21.645721 0 0 1 -0.98347,1.30929 12.362038,21.645721 0 0 1 -1.053833,1.13104 12.362038,21.645721 0 0 1 -1.112383,0.9409 12.362038,21.645721 0 0 1 -1.16072,0.74196 12.362038,21.645721 0 0 1 -1.197244,0.53529 12.362038,21.645721 0 0 1 -1.221953,0.32345 12.362038,21.645721 0 0 1 -1.234305,0.10799 12.362038,21.645721 0 0 1 -0.874436,-0.0543 12.362038,21.645721 0 0 1 -1.226787,-0.26041 12.362038,21.645721 0 0 1 -1.205303,-0.47381 12.362038,21.645721 0 0 1 -1.172537,-0.68255 12.362038,21.645721 0 0 1 -1.127959,-0.88354 12.362038,21.645721 0 0 1 -1.072093,-1.07678 12.362038,21.645721 0 0 1 -1.004957,-1.25866 12.362038,21.645721 0 0 1 -0.928684,-1.42761 12.362038,21.645721 0 0 1 -0.842207,-1.58314 12.362038,21.645721 0 0 1 -0.747674,-1.72265 12.362038,21.645721 0 0 1 -0.646158,-1.84458 12.362038,21.645721 0 0 1 -0.537124,-1.94843 12.362038,21.645721 0 0 1 -0.423788,-2.03215 12.362038,21.645721 0 0 1 -0.305622,-2.09673 12.362038,21.645721 0 0 1 -0.07198,-0.8329 25.056258,25.434386 0 0 1 12.925308,-3.70364 25.056258,25.434386 0 0 1 11.514825,2.89709 z"
       id="path4115-9" />
    <ellipse
       style="opacity:0.23299997;fill:#ffffff;fill-opacity:1;stroke:#000000;stroke-width:0.42047572;stroke-miterlimit:4;stroke-dasharray:none;stroke-opacity:1"
       id="path4171-1"
       cx="-30.204569"
       cy="132.76112"
       rx="4.0887318"
       ry="3.2651184"
       transform="scale(-1,1)" />
    <ellipse
       style="opacity:0.403;fill:#ffffff;fill-opacity:1;stroke:#000000;stroke-width:0.40677494;stroke-miterlimit:4;stroke-dasharray:none;stroke-opacity:1"
       id="path4173-2"
       cx="-41.733208"
       cy="140.24359"
       rx="5.9014068"
       ry="5.5433016"
       transform="scale(-1,1)" />
    <path
       id="path4191-7"
       style="fill:none;stroke:#000000;stroke-width:0.270147px;stroke-linecap:butt;stroke-linejoin:miter;stroke-opacity:1"
       d="m 60.661853,118.33718 c -17.409218,-3.8422 -61.37603972,-18.27886 -55.00573,-7.23764 m 51.810952,10.5884 C 41.122783,116.72881 8.6559988,107.80878 5.656123,111.09954 m 55.00573,7.23764 -3.194778,3.35076"
       inkscape:connector-curvature="0"
       sodipodi:nodetypes="cccccc" />
  </g>
</svg>
